HIERARCHY
ROOT hips
{
  OFFSET 0 9.714602 2.157075e-15
  CHANNELS 6 Xposition Yposition Zposition Yrotation Xrotation Zrotation
  JOINT leftUpperLeg
  {
    OFFSET 0.603868179 -0.8547634000000004 0
    CHANNELS 3 Yrotation Xrotation Zrotation
    JOINT leftLowerLeg
    {
      OFFSET 0 -3.63383757784745 0
      CHANNELS 3 Yrotation Xrotation Zrotation
      JOINT leftFoot
      {
        OFFSET -0.12525308900000004 -4.195072000000001 -0.20169123999999997
        CHANNELS 3 Yrotation Xrotation Zrotation
        JOINT leftToes
        {
          OFFSET -0.03434009849999996 -0.8300733570000007 0.7748183
          CHANNELS 3 Yrotation Xrotation Zrotation
          End Site
          {
            OFFSET -0.03434009849999996 -0.20150344299999845 0.7748183
          }
        }
      }
    }
  }
  JOINT rightUpperLeg
  {
    OFFSET -0.603888966 -0.8547634000000004 0
    CHANNELS 3 Yrotation Xrotation Zrotation
    JOINT rightLowerLeg
    {
      OFFSET 0 -3.633837684417624 0
      CHANNELS 3 Yrotation Xrotation Zrotation
      JOINT rightFoot
      {
        OFFSET 0.12526601599999998 -4.195072000000001 -0.20168892999999996
        CHANNELS 3 Yrotation Xrotation Zrotation
        JOINT rightToes
        {
          OFFSET 0.03434613350000004 -0.8300733570000007 0.7748197
          CHANNELS 3 Yrotation Xrotation Zrotation
          End Site
          {
            OFFSET 0.03434613350000004 -0.20150344299999845 0.7748197
          }
        }
      }
    }
  }
  JOINT spine
  {
    OFFSET 0 0.12716710600000014 0
    CHANNELS 3 Yrotation Xrotation Zrotation
    JOINT chest
    {
      OFFSET 0 0.5628217276339793 0
      CHANNELS 3 Yrotation Xrotation Zrotation
      JOINT upperChest
      {
        OFFSET 0 0.8959260118715402 0
        CHANNELS 3 Yrotation Xrotation Zrotation
        JOINT leftShoulder
        {
          OFFSET 0.164333079 1.3716208900000004 0
          CHANNELS 3 Yrotation Xrotation Zrotation
          JOINT leftUpperArm
          {
            OFFSET 0.5440966369472551 0 0
            CHANNELS 3 Yrotation Xrotation Zrotation
            JOINT leftLowerArm
            {
              OFFSET 2.0903029426819146 0 0
              CHANNELS 3 Yrotation Xrotation Zrotation
              JOINT leftHand
              {
                OFFSET 2.1773154932749046 0 0
                CHANNELS 3 Yrotation Xrotation Zrotation
                JOINT leftIndexProximal
                {
                  OFFSET 0.5242087100000004 0.04142403544999951 0.1569554180744
                  CHANNELS 3 Yrotation Xrotation Zrotation
                  JOINT leftIndexIntermediate
                  {
                    OFFSET 0.2688390000000007 -0.01759290700000138 -0.007211491469999989
                    CHANNELS 3 Yrotation Xrotation Zrotation
                    JOINT leftIndexDistal
                    {
                      OFFSET 0.1728022099999993 -0.011349916499998614 -0.002532955260000011
                      CHANNELS 3 Yrotation Xrotation Zrotation
                      End Site
                      {
                        OFFSET 0.1728022099999993 -0.011349916499998614 -0.002532955260000011
                      }
                    }
                  }
                }
                JOINT leftMiddleProximal
                {
                  OFFSET 0.5304522810000001 0.04766821864999882 0.02003710807439999
                  CHANNELS 3 Yrotation Xrotation Zrotation
                  JOINT leftMiddleIntermediate
                  {
                    OFFSET 0.308005214 -0.01806497570000065 -0.000008828937999999509
                    CHANNELS 3 Yrotation Xrotation Zrotation
                    JOINT leftMiddleDistal
                    {
                      OFFSET 0.1879638430000008 -0.011110305799999498 0.00013381242800002136
                      CHANNELS 3 Yrotation Xrotation Zrotation
                      End Site
                      {
                        OFFSET 0.1879638430000008 -0.011110305799999498 0.00013381242800002136
                      }
                    }
                  }
                }
                JOINT leftLittleProximal
                {
                  OFFSET 0.4858322439999996 -0.01170992855000108 -0.22194579292560002
                  CHANNELS 3 Yrotation Xrotation Zrotation
                  JOINT leftLittleIntermediate
                  {
                    OFFSET 0.19780874300000084 -0.010591745399999297 0.01081235710000003
                    CHANNELS 3 Yrotation Xrotation Zrotation
                    JOINT leftLittleDistal
                    {
                      OFFSET 0.13411581499999992 -0.007411241529999835 0.005455538629999951
                      CHANNELS 3 Yrotation Xrotation Zrotation
                      End Site
                      {
                        OFFSET 0.13411581499999992 -0.007411241529999835 0.005455538629999951
                      }
                    }
                  }
                }
                JOINT leftRingProximal
                {
                  OFFSET 0.5272181330000003 0.024465322449997995 -0.11045969992560002
                  CHANNELS 3 Yrotation Xrotation Zrotation
                  JOINT leftRingIntermediate
                  {
                    OFFSET 0.23788988600000005 -0.012254714999999639 0.009996630000000048
                    CHANNELS 3 Yrotation Xrotation Zrotation
                    JOINT leftRingDistal
                    {
                      OFFSET 0.16061007999999988 -0.008172988999999298 0.005049183999999915
                      CHANNELS 3 Yrotation Xrotation Zrotation
                      End Site
                      {
                        OFFSET 0.16061007999999988 -0.008172988999999298 0.005049183999999915
                      }
                    }
                  }
                }
                JOINT leftThumbProximal
                {
                  OFFSET 0.10017096999999975 -0.08589744455000048 0.15498148307440002
                  CHANNELS 3 Yrotation Xrotation Zrotation
                  JOINT leftThumbIntermediate
                  {
                    OFFSET 0.28238728599999985 -0.0738751900000012 0.14039220000000008
                    CHANNELS 3 Yrotation Xrotation Zrotation
                    JOINT leftThumbDistal
                    {
                      OFFSET 0.19661068900000078 -0.08030175999999889 0.01706469799999999
                      CHANNELS 3 Yrotation Xrotation Zrotation
                      End Site
                      {
                        OFFSET 0.19661068900000078 -0.08030175999999889 0.01706469799999999
                      }
                    }
                  }
                }
              }
            }
          }
        }
        JOINT neck
        {
          OFFSET 0 1.4057550240976888 0
          CHANNELS 3 Yrotation Xrotation Zrotation
          JOINT head
          {
            OFFSET 0 0.7687676000000313 0
            CHANNELS 3 Yrotation Xrotation Zrotation
            JOINT leftEye
            {
              OFFSET 0.276441574 0.46404719999999955 0.116034755
              CHANNELS 3 Yrotation Xrotation Zrotation
              End Site
              {
                OFFSET 0.276441574 0.46404719999999955 0.116034755
              }
            }
            JOINT rightEye
            {
              OFFSET -0.27644991899999993 0.46404719999999955 0.116034495
              CHANNELS 3 Yrotation Xrotation Zrotation
              End Site
              {
                OFFSET -0.27644991899999993 0.46404719999999955 0.116034495
              }
            }
            JOINT jaw
            {
              OFFSET -2.868399210000001e-7 -0.10894656200000075 0.5470737
              CHANNELS 3 Yrotation Xrotation Zrotation
              End Site
              {
                OFFSET -2.868399210000001e-7 -0.10894656200000075 0.5470737
              }
            }
          }
        }
        JOINT rightShoulder
        {
          OFFSET -0.164300315 1.3716208900000004 0
          CHANNELS 3 Yrotation Xrotation Zrotation
          JOINT rightUpperArm
          {
            OFFSET -0.5440967087760871 0 0
            CHANNELS 3 Yrotation Xrotation Zrotation
            JOINT rightLowerArm
            {
              OFFSET -2.0903020053638963 0 0
              CHANNELS 3 Yrotation Xrotation Zrotation
              JOINT rightHand
              {
                OFFSET -2.1773139222338718 0 0
                CHANNELS 3 Yrotation Xrotation Zrotation
                JOINT rightIndexProximal
                {
                  OFFSET -0.5240443353000002 0.04012465494599882 0.15783574549999999
                  CHANNELS 3 Yrotation Xrotation Zrotation
                  JOINT rightIndexIntermediate
                  {
                    OFFSET -0.26884555800000043 -0.017589330699998573 -0.006999019529999977
                    CHANNELS 3 Yrotation Xrotation Zrotation
                    JOINT rightIndexDistal
                    {
                      OFFSET -0.17280339999999894 -0.011366605800000595 -0.0023968889999999906
                      CHANNELS 3 Yrotation Xrotation Zrotation
                      End Site
                      {
                        OFFSET -0.17280339999999894 -0.011366605800000595 -0.0023968889999999906
                      }
                    }
                  }
                }
                JOINT rightMiddleProximal
                {
                  OFFSET -0.5304410943000004 0.047378540046001394 0.02097420400000001
                  CHANNELS 3 Yrotation Xrotation Zrotation
                  JOINT rightMiddleIntermediate
                  {
                    OFFSET -0.30800104100000003 -0.018138885500000868 0.00022318214199998354
                    CHANNELS 3 Yrotation Xrotation Zrotation
                    JOINT rightMiddleDistal
                    {
                      OFFSET -0.1879608629999996 -0.011157989999999174 0.00027462840000002514
                      CHANNELS 3 Yrotation Xrotation Zrotation
                      End Site
                      {
                        OFFSET -0.1879608629999996 -0.011157989999999174 0.00027462840000002514
                      }
                    }
                  }
                }
                JOINT rightLittleProximal
                {
                  OFFSET -0.4860737942999993 -0.010194778443999297 -0.22149037550000003
                  CHANNELS 3 Yrotation Xrotation Zrotation
                  JOINT rightLittleIntermediate
                  {
                    OFFSET -0.19779741800000084 -0.010701417900000898 0.0109232217
                    CHANNELS 3 Yrotation Xrotation Zrotation
                    JOINT rightLittleDistal
                    {
                      OFFSET -0.13410925900000037 -0.007473230360000027 0.005529150370000013
                      CHANNELS 3 Yrotation Xrotation Zrotation
                      End Site
                      {
                        OFFSET -0.13410925900000037 -0.007473230360000027 0.005529150370000013
                      }
                    }
                  }
                }
                JOINT rightRingProximal
                {
                  OFFSET -0.5273464322999999 0.025143623346000066 -0.10969422750000002
                  CHANNELS 3 Yrotation Xrotation Zrotation
                  JOINT rightRingIntermediate
                  {
                    OFFSET -0.23787677299999976 -0.012384653099999365 0.01014918090000004
                    CHANNELS 3 Yrotation Xrotation Zrotation
                    JOINT rightRingDistal
                    {
                      OFFSET -0.16060352300000025 -0.008248091000000457 0.005152895999999962
                      CHANNELS 3 Yrotation Xrotation Zrotation
                      End Site
                      {
                        OFFSET -0.16060352300000025 -0.008248091000000457 0.005152895999999962
                      }
                    }
                  }
                }
                JOINT rightThumbProximal
                {
                  OFFSET -0.09997814890000067 -0.08706808505400065 0.1544524175
                  CHANNELS 3 Yrotation Xrotation Zrotation
                  JOINT rightThumbIntermediate
                  {
                    OFFSET -0.2821510999999999 -0.0748121737999985 0.14037167699999997
                    CHANNELS 3 Yrotation Xrotation Zrotation
                    JOINT rightThumbDistal
                    {
                      OFFSET -0.19664823999999914 -0.08023024000000101 0.016960725200000012
                      CHANNELS 3 Yrotation Xrotation Zrotation
                      End Site
                      {
                        OFFSET -0.19664823999999914 -0.08023024000000101 0.016960725200000012
                      }
                    }
                  }
                }
              }
            }
          }
        }
      }
    }
  }
}
MOTION
Frames: 4
Frame Time: 0.03333333333333333
-0.15388295204021774 9.24428490313121 -3.3732799026518494 -7.88644473128833 -13.476935013129484 2.5524886957470305 -1.7061137381303526 2.27747591183691 -6.448053500253759 -6.2822298778331495e-18 8.573981557267132 0.7314484095794324 4.607581715307246 5.887444313496634 5.223601210883807 0 0 0 -5.837968600246772 -14.50919481227875 16.613440923992233 1.2102113737984858e-16 34.786789002056736 2.4733568595961106 -0.7935542666707279 1.2815026261724836 -20.443085390409788 0 0 0 -6.976910778156529 6.714280082431794 -1.3131020239424638 -7.223191513087883 0.292059379961478 -2.3069271983191886 0 0 0 0 0 -9.172257063262345 -11.24174384138861 -4.6942101275816155 -54.3920120625255 -27.123573483560115 2.4022351773088184 58.702269905686165 40.928559908112526 -16.271905384347452 -0.1719075713898077 -12.27346263601614 1.0807453680639065 -10.27301525921231 7.216341802192253 -0.6854035254238255 -14.652359909582406 1.488311234377048 -0.12275496173863688 -1.7076499717895461 2.1621188362977013 -0.2546607330975113 0.5976282371667021 5.0498613026682175 -0.28776185529841664 -14.648203449344804 2.4509906861157376 -0.14466394719073813 -0.2385773173336406 51.95676176744742 -4.302208801738256 -6.418218638395453 2.72113179408574 -0.11078814528331103 -0.9768308963471085 -2.484945133913829 0.16432466492634265 -0.6693604073296301 20.136184737616176 -1.7542343023544837 0.06366839132812598 1.1087159995566491 0.45484446986113364 -16.42852018334546 -0.30631518050750695 0.028670970882667676 -0.4162036970898737 0.23737656096877743 -8.738858837512648 -26.646090004590256 -26.10060921365434 2.0976871430640864 -6.84574983997339 -25.874352564223873 -5.551964450943005e-15 1.2753615516842825e-15 8.408876702711598 0.9576333720397101 -2.044944998537103 8.408876702711598 0.9576333720397101 -2.044944998537103 0 0 0 0 0 0 0 0 0 0 0 -7.341238128564305 33.83796100226297 -34.86374015778102 19.673564602090178 -1.8613295087996014 -35.84347297250729 0.5520682520702236 66.46113577278619 -46.00972412015927 -14.36538225877031 -7.998557518802643 -0.744711050699003 43.76626093402296 0.8816330690933916 -0.16508416642383186 36.649245560657974 -1.244365907203374 -0.18229993750105583 18.112523306436156 -12.720874574250182 0.7586946652773195 44.64666655105924 1.1428643224888735 0.14069795620265285 42.94597204676412 -1.469185530651876 0.06962034878550818 19.170741225954707 -18.45967888463142 2.1293950289416492 55.88129923905876 -1.811102708316438 1.994901728013461 37.73479188299379 -2.4582632485318685 0.6488855239601398 23.60223845931775 -12.470233321856824 2.9640353310283047 47.96434980673721 -0.2015376252628703 1.7999486550903425 45.61639636640106 -1.5201432185630182 0.6751720879913904 21.311271170375896 -34.34321910900032 -0.28118440877513345 5.202239519274561 -4.87016622329957 1.344352280886985 2.4128327212050116 -16.306675134864033 3.5721258373226935e-15 -5.11781901825377e-16
-0.15355360912556043 9.237554044959202 -3.4638967283787725 -8.53793964762064 -11.546250876045582 2.717622911435075 -3.308433713279269 0.6222124209603592 -6.934153145023616 -0.034751055498547824 11.583580993461682 1.3719511493161456 9.032197401981003 2.4849593249509137 4.000436045406472 0 0 0 -0.34995549375077156 -12.257587423009731 12.081611149476583 -0.1384755568964587 31.367280633169003 0.4232494166209428 -0.400156477805405 -1.0588744915205137 -15.010514865999617 0 0 0 -5.003514480634256 5.7458764570943615 -1.1803127427591762 -5.242444667467206 0.21700735481046343 -1.8879097107943272 0 0 0 0 0 -9.701810213915385 -5.857846861817718 -2.665214021775102 -57.98140110568694 -21.557412737339856 -4.000182546404654 46.843854771897924 38.97450246009331 -16.374592245506918 1.0128236056792084 -7.813054408028632 -1.4039092372229007 -27.694035060794228 5.162309246601749 0.3317589227767043 -43.09772960562105 1.0199647157306093 -0.17792535314465335 -16.804350738019657 2.3396302403309535 -0.35544719200090785 -22.133834526640733 3.4836286472824725 0.6978861253840678 -43.090177933049034 1.6630197229016999 0.18152225251137788 -18.559127332045733 37.51289212991695 3.5643034048004654 -25.42350322167589 1.6097659695738853 1.7781509000262485 -33.93903995993135 -1.766265062391366 0.616063237502916 -20.16898081844143 15.430150556332526 1.669503840693372 -22.369375174216295 0.37419258718596266 1.4446339095611112 -44.2705136933219 -0.2855378164474301 0.6441444305191346 -21.680878949380443 15.661939789660945 -5.997675743818006 -28.161898126676853 -19.919390487385442 2.2485567478406487 -4.384136497880021 -15.849009299921462 1.413561931367789 -0.14396326875494045 8.161284542667888 0.9706346635531553 -2.051480698772402 8.161284542667888 0.9706346635531553 -2.051480698772402 0 0 0 0 0 0 0 0 0 0 0 -7.356005023028873 33.38043772528839 -34.70664429088744 18.902718151031404 -1.9166739103270594 -36.64782633901082 0.546023910153574 65.38507211891194 -46.84260598671649 -13.490936466117835 -5.012266434624499 -0.7520140529981462 47.341955729155146 0.40655758573226114 -0.6119294550379323 57.762797404946454 -0.8955090463546669 -0.28392929774567005 31.780871893610563 -8.490671032312665 0.924167228808829 50.18052841487149 0.8043069090456882 0.00571852086370775 61.963770724240746 -0.9740475328771858 0.15501454731752598 29.117339386943108 -12.906749053710156 2.682124982734987 58.427593172220476 -0.4538272174231748 2.7139330018541186 58.48150176760905 -1.5504549126249176 0.9600235258716829 27.491660040992052 -8.754100071385357 3.0759523094906798 52.98255560559139 0.5047174274184197 2.09212920393719 63.74380507239446 -0.9202139772844202 0.9248124455098208 27.64958244642813 -34.716869839761266 -0.3899749561915671 7.0966228527488955 -0.650498202609914 1.5018955891086425 2.3513077849794195 -10.831002958871386 -0.04006284803221888 0.003755541051514892
-0.1532242662109031 9.230823186787195 -3.554513554105695 -9.18415036464522 -9.615734504910682 2.883667970587446 -4.896827257283633 -1.0459371047880093 -7.373829815608098 -0.03517818257122662 14.593374059534115 2.018440726568957 13.524520590679638 -0.8124393803309531 2.5196064003445926 0 0 0 4.895969612806249 -9.603417599582768 7.825574475784927 -0.13384453799576387 27.945804711675116 -1.5489566965831592 -0.22979989539781523 -3.4259680273331043 -9.585376172544397 0 0 0 -3.0385717639356393 4.7749709530227555 -1.1473017794552103 -3.2623082580111538 0.12751967038041642 -1.4717382699004948 0 0 0 0 0 -10.231363592823826 -0.6165408790676012 -0.3132415863159298 -61.36129239143155 -14.683919365914003 -9.11418909742079 34.311156464927585 37.01781382165166 -16.438422222279385 2.2010227344330295 -2.8092879247217906 -2.431782822812 -45.270039382202945 2.871781908695598 0.24726981054044425 -71.56100889506045 0.5821467432825526 -0.3531691202734924 -31.90025076260794 2.5423008756595276 -0.3798127661011761 -44.86564990970726 1.6368475745692286 0.8182677760264782 -71.55098234270662 0.8124508721332645 0.24346410629474946 -36.88257937291532 21.207947943722072 6.0637310862360545 -45.9004212344834 -0.3523975752796844 2.7573794034275916 -66.96273019923511 -1.2395167957895945 1.2817642665277813 -39.66477273782458 9.766395158167384 3.025738159239396 -45.03810612067208 -0.7380695736705306 1.976639855220134 -72.1335365832916 -0.48943698593926693 1.2252433026070542 -42.94900077624511 30.94873659224249 -2.9563413152092792 -28.88793864010463 -13.737321560884354 2.1336303288027865 -1.9205509479520462 -5.818021587127611 2.8305949303174187 -0.03950431118089723 7.913689123813048 0.9836075061551597 -2.058072588179213 7.913689123813048 0.9836075061551597 -2.058072588179213 0 0 0 0 0 0 0 0 0 0 0 -7.370771945916513 32.921236770009855 -34.55461465855161 18.131805512281915 -1.9718310105255865 -37.45219519082486 0.5400945428418653 64.27332636700937 -47.66382924648972 -12.579662418900151 -2.0321648052481334 -0.9454416173653507 50.91250699693566 -0.19763569637648185 -0.8576263085962857 78.8808772117096 -0.5805422612440998 -0.4651135633309135 45.44858250382258 -4.264267788718939 0.6808997627499239 55.71146249600509 0.4402444612189288 -0.011568743042075325 80.98202063961836 -0.4716008572010666 0.15359785155619168 39.06431925697894 -7.332708873701289 2.9855691996207554 61.01640997619983 1.0709334420111727 2.905671651661152 79.24719619560965 -0.6235451601714738 1.2088332728077331 31.38588287537581 -5.042577797190908 2.862833292573601 57.997243116590234 1.2669622266397131 2.1501658168502393 81.87544468800567 -0.2963477801970434 1.1066865639040422 33.990577975381605 -35.09391114809114 -0.4863521818147377 8.99170116094889 3.5693236592986386 1.663537601474886 2.3015419238777173 -5.355330740480155 -0.08030124634960949 0.0036710240372066234
-0.1528949232962458 9.224092328615185 -3.6451303798326187 -9.825035358996578 -7.6854051308471165 3.050980726791804 -6.4738914888830745 -2.7255931028343765 -7.767475214284753 0 17.602977445017927 2.674784824864623 18.111222760331156 -3.9823483573485596 0.7811121521746611 0 0 0 9.89300906794388 -6.586801215082061 3.860850472755256 1.0924997750077025e-16 24.52643483893148 -3.464260150631921 -0.2845236405514286 -5.798546864513254 -4.149169738967777 0 0 0 -1.0809149374707738 3.807186958363663 -1.2136179270559109 -1.2828784229121324 0.023707997497202475 -1.0589084441552168 0 0 0 0 0 -10.760916733862429 4.4812543754365235 2.333610654740527 -64.51488352529863 -6.702513282050868 -12.599450494923028 21.093446777333302 35.059714678284735 -16.46328062594409 3.391072632673546 2.271968443927273 -1.8994474265157018 -62.870612425082555 0.8981796529938653 -0.9183544133165132 -100.00115676825729 0.20506440643375626 -0.6363837304872692 -46.994925037615204 2.7386440742927425 -0.3239717926528388 -67.59737530862503 -0.04407405768731226 0.04418823004595756 -100.00000324823134 -0.01446299540962418 0.03486799446815148 -55.20488730301499 5.06868051639609 2.7019480045613298 -66.24150745226639 -2.532160911038129 2.5093442720218944 -100.00892673788951 -0.9650907270655266 2.085069141720135 -59.161225164458884 4.016695238894325 2.0931127667808234 -67.73161396993041 -1.9702910268999527 1.9272618043132963 -100.0053272155371 -0.890365079085566 1.6927911491631227 -64.22400837285481 46.17635457086687 0.16825924398664172 -28.78599474883841 -7.566788572690273 1.7544726169075484 0.5159795264449226 4.230613336432257 4.207734046375863 0.31097431173999657 7.6660912472442915 0.996551686705503 -2.0647203325027212 7.6660912472442915 0.996551686705503 -2.0647203325027212 0 0 0 0 0 0 0 0 0 0 0 -7.385538869289253 32.46042445759562 -34.407688642484494 17.36082487166735 -2.0268043003315737 -38.256575889853785 0.5342776156723321 63.124279657883655 -48.47269205212874 -11.62998392425045 0.9304075979879896 -1.3237323271140085 54.4685408355833 -0.8498011839671277 -0.8691405400426697 100.00103582277193 -0.3172977584317084 -0.7155878005997235 59.11563855329941 -0.08114105564686244 0.03248310744232579 61.20922440253603 0.09042073683716843 0.09072399324355175 100.00001189584161 0.02304775988696518 0.0654129626748643 49.01089196546758 -1.7497498624957784 3.0361839647736604 63.62290767882153 2.5646044380901882 2.5450223147302506 100.00916994039282 0.3182056736061648 1.394096239463493 35.28394836563996 -1.3649681897749786 2.327253534523592 62.98616714774507 2.0094030134073133 1.9682779507839616 100.00554969394483 0.34382512043278796 1.2185443519472905 40.33350165392541 -35.473941967269624 -0.570206410857679 10.887399384121107 7.7893702064647306 1.8284019040424824 2.2638068328403356 0.12034848711291139 -0.12034795496972157 -0.00025278834849857466
